<?xml version="1.0" standalone="no"?><!DOCTYPE svg PUBLIC "-//W3C//DTD SVG 1.1//EN" "http://www.w3.org/Graphics/SVG/1.1/DTD/svg11.dtd"><svg t="1667745724055" class="icon" viewBox="0 0 1024 1024" version="1.1" xmlns="http://www.w3.org/2000/svg" p-id="2672" xmlns:xlink="http://www.w3.org/1999/xlink" width="200" height="200"><path d="M925.866667 633.6c-6.4 57.6-51.2 100.266667-106.666667 110.933333l32 164.266667c4.266667 23.466667-10.666667 44.8-34.133333 51.2h-8.533334c-19.2 0-38.4-14.933333-42.666666-34.133333L733.866667 746.666667H290.133333L256 925.866667c-4.266667 21.333333-21.333333 34.133333-42.666667 34.133333h-8.533333c-23.466667-4.266667-38.4-27.733333-34.133333-51.2l32-164.266667c-55.466667-8.533333-100.266667-53.333333-106.666667-110.933333L85.333333 537.6c-2.133333-12.8 2.133333-23.466667 10.666667-34.133333 8.533333-8.533333 19.2-12.8 32-12.8h44.8l14.933333-305.066667C192 117.333333 247.466667 64 315.733333 64h392.533334c68.266667 0 123.733333 53.333333 128 121.6l14.933333 305.066667H896c12.8 0 23.466667 4.266667 32 14.933333 8.533333 8.533333 12.8 21.333333 10.666667 34.133333l-12.8 93.866667z m-83.2-10.666667l6.4-46.933333H177.066667l6.4 46.933333c2.133333 21.333333 21.333333 38.4 42.666666 38.4H797.866667c23.466667 0 40.533333-17.066667 44.8-38.4zM273.066667 189.866667L258.133333 490.666667h507.733334l-14.933334-300.8c-2.133333-23.466667-19.2-40.533333-42.666666-40.533334H315.733333c-23.466667 0-40.533333 17.066667-42.666666 40.533334z" fill="#C2EAF9" p-id="2673"></path></svg>